<?xml version="1.0" encoding="utf-8"?>
<svg viewBox="0 0 580 140" xmlns="http://www.w3.org/2000/svg" xmlns:xlink="http://www.w3.org/1999/xlink">
  <defs>
    <radialGradient gradientUnits="userSpaceOnUse" cx="452.654" cy="96.067" r="220.892" id="gradient-1-0" gradientTransform="matrix(1, 0, 0, 1, -31.762024, -31.081204)" xlink:href="#gradient-1"/>
    <linearGradient id="gradient-1">
      <title>Yellow</title>
      <stop offset="0.061" style="stop-color: rgb(196, 48, 27);"/>
      <stop offset="0.876" style="stop-color: rgb(243, 255, 136);"/>
    </linearGradient>
    <linearGradient id="gradient-0-0" gradientUnits="userSpaceOnUse" x1="109.148" y1="37.12" x2="109.148" y2="119.649" xlink:href="#gradient-0"/>
    <linearGradient id="gradient-0">
      <title>Yellow2</title>
      <stop offset="0.373" style="stop-color: rgb(255, 252, 60);"/>
      <stop offset="0.803" style="stop-color: rgb(208, 59, 62);"/>
    </linearGradient>
  </defs>
  <path d="M 203.456 94.981 L 203.456 50.949 L 211.776 50.949 L 221.824 75.397 L 222.144 75.397 L 222.144 50.949 L 230.208 50.949 L 230.208 94.981 L 222.464 94.981 L 211.776 68.741 L 211.456 68.741 L 211.456 94.981 Z M 237.054 94.981 L 237.054 50.949 L 258.686 50.949 L 258.686 58.053 L 245.438 58.053 L 245.438 69.189 L 256.894 69.189 L 256.894 76.229 L 245.438 76.229 L 245.438 87.877 L 258.686 87.877 L 258.686 94.981 Z M 261.5 94.981 L 271.164 50.949 L 283.132 50.949 L 292.732 94.981 L 284.22 94.981 L 282.3 85.381 L 271.804 85.381 L 269.82 94.981 Z M 273.084 78.469 L 280.956 78.469 L 277.244 59.077 L 276.796 59.077 Z M 296.765 94.981 L 296.765 50.949 L 311.613 50.949 Q 315.261 50.949 317.469 51.877 Q 319.677 52.805 320.797 54.661 Q 321.917 56.517 322.269 59.109 Q 322.621 61.701 322.621 65.029 Q 322.621 67.653 322.333 70.117 Q 322.045 72.581 321.085 74.501 Q 320.125 76.421 318.141 77.509 L 323.517 94.981 L 314.813 94.981 L 310.077 78.085 L 311.869 78.853 Q 311.485 78.917 310.973 78.981 Q 310.461 79.045 309.821 79.045 L 305.149 79.045 L 305.149 94.981 Z M 305.149 72.197 L 309.501 72.197 Q 311.101 72.197 312.029 71.845 Q 312.957 71.493 313.437 70.693 Q 313.917 69.893 314.045 68.485 Q 314.173 67.077 314.173 65.093 Q 314.173 62.981 314.045 61.605 Q 313.917 60.229 313.469 59.461 Q 313.021 58.693 312.093 58.341 Q 311.165 57.989 309.501 57.989 L 305.149 57.989 Z M 340.475 94.981 L 340.475 50.949 L 352.891 50.949 L 359.099 81.797 L 359.547 81.797 L 365.755 50.949 L 378.043 50.949 L 378.043 94.981 L 369.915 94.981 L 369.915 62.469 L 369.531 62.469 L 362.811 94.981 L 355.451 94.981 L 348.859 62.469 L 348.347 62.469 L 348.347 94.981 Z M 381.946 94.981 L 391.61 50.949 L 403.578 50.949 L 413.178 94.981 L 404.666 94.981 L 402.746 85.381 L 392.25 85.381 L 390.266 94.981 Z M 393.53 78.469 L 401.402 78.469 L 397.69 59.077 L 397.242 59.077 Z M 414.456 94.981 L 424.184 72.837 L 414.648 50.949 L 423.736 50.949 L 429.752 66.373 L 430.136 66.373 L 436.216 50.949 L 445.048 50.949 L 435.576 72.645 L 445.24 94.981 L 436.024 94.981 L 429.944 79.045 L 429.432 79.045 L 423.288 94.981 Z" style="fill: url('#gradient-1-0'); paint-order: fill; text-transform: uppercase;"/>
  <path d="M 133.874 37.12 L 129.84 37.12 L 128.113 37.513 L 125.815 38.691 L 124.566 39.769 L 123.22 42.126 L 122.839 43.901 L 122.839 46.259 L 123.227 47.829 L 123.707 48.515 L 123.802 47.829 L 123.418 46.847 L 123.418 44.487 L 124.37 41.545 L 125.617 40.072 L 128.501 38.691 L 131.956 38.498 L 135.026 39.084 L 137.332 39.87 L 138.58 40.758 L 138.288 40.856 L 135.982 40.072 L 132.34 39.87 L 129.46 40.856 L 127.257 42.913 L 126.295 45.667 L 126.298 49.207 L 126.682 50.68 L 127.066 50.68 L 127.066 50.186 L 126.682 49.207 L 126.679 46.847 L 127.443 44.296 L 128.692 42.621 L 131.378 41.249 L 134.645 41.249 L 138.485 42.621 L 140.022 43.606 L 141.654 45.274 L 143.191 47.634 L 143.963 49.399 L 144.347 50.58 L 144.922 55.196 L 143.582 54.409 L 143.582 56.279 L 143.289 56.574 L 141.181 56.574 L 135.808 57.557 L 132.737 58.538 L 130.626 59.719 L 126.79 61.097 L 122.567 63.061 L 118.146 63.454 L 115.463 64.24 L 113.161 65.609 L 111.05 67.381 L 110.094 67.774 L 106.83 70.327 L 105.101 71.113 L 101.837 71.705 L 94.74 73.863 L 91.479 75.635 L 88.507 78.188 L 88.215 78.779 L 87.925 78.779 L 87.925 79.072 L 84.858 82.216 L 84.28 83.393 L 81.791 86.536 L 81.217 89.291 L 80.063 92.831 L 80.448 92.925 L 83.042 87.23 L 83.515 87.324 L 83.519 88.701 L 83.328 88.897 L 83.137 91.651 L 82.566 93.809 L 80.74 96.661 L 79.016 98.032 L 75.18 99.999 L 74.504 100.689 L 73.354 103.634 L 71.633 109.727 L 69.521 113.068 L 68.274 114.343 L 66.838 115.621 L 66.454 116.404 L 66.454 117.191 L 66.841 119.155 L 67.321 119.649 L 68.954 118.371 L 69.722 116.213 L 70.392 115.52 L 71.824 114.441 L 76.809 105.013 L 78.635 102.945 L 81.321 101.573 L 85.161 100.393 L 87.847 99.213 L 90.435 96.762 L 96.862 89.586 L 98.202 88.799 L 100.12 88.207 L 102.809 88.207 L 103.003 88.409 L 107.42 88.409 L 110.875 87.623 L 121.424 83.302 L 122.576 83.302 L 127.187 86.442 L 133.335 88.799 L 134.58 89.684 L 134.774 91.059 L 134.008 93.224 L 133.529 93.708 L 130.074 94.102 L 129.02 94.795 L 127.674 97.447 L 130.461 96.661 L 134.297 96.661 L 135.545 95.773 L 137.844 87.915 L 137.263 86.738 L 136.403 85.851 L 134.573 84.18 L 132.948 82.313 L 131.884 81.43 L 131.884 80.642 L 132.363 80.155 L 133.805 78.877 L 134.379 76.913 L 133.995 75.531 L 133.992 74.163 L 140.422 67.381 L 141.378 67.183 L 142.816 68.07 L 142.629 69.247 L 141.19 70.72 L 138.793 71.997 L 139.463 72.291 L 142.344 72.291 L 144.067 71.507 L 146.567 69.738 L 147.523 69.738 L 148.485 70.327 L 149.638 70.327 L 151.651 69.54 L 151.841 67.677 L 149.152 62.963 L 148.961 62.368 L 148.961 60.404 L 149.346 59.618 L 149.342 58.44 L 148.573 57.261 L 148.761 56.672 L 148.573 55.889 L 148.758 54.9 L 148.57 54.708 L 148.57 52.745 L 148.183 50.781 L 147.03 47.24 L 144.912 43.307 L 141.937 40.263 L 140.594 39.285 L 137.903 38.105 L 133.874 37.12 Z" style="paint-order: stroke; fill: url('#gradient-0-0');"/>
</svg>